<?xml version="1.0" encoding="utf-8"?>
<!-- Generator: Adobe Illustrator 22.0.1, SVG Export Plug-In . SVG Version: 6.00 Build 0)  -->
<svg version="1.1" id="レイヤー_1" xmlns="http://www.w3.org/2000/svg" xmlns:xlink="http://www.w3.org/1999/xlink" x="0px"
	 y="0px" viewBox="0 0 226.2 226" style="enable-background:new 0 0 226.2 226;" xml:space="preserve">
<style type="text/css">
	.st0{fill:#00A040;}
	.st1{fill:#E8380D;}
	.st2{fill:#FFFFFF;}
	.st3{display:none;}
	.st4{display:inline;fill:#00A040;}
	.st5{display:inline;fill:#FFFFFF;}
	.st6{display:inline;fill:none;stroke:#000000;stroke-width:0.4739;}
	.st7{display:inline;}
</style>
<g>
	<g>
		<g>
			<path class="st0" d="M139.1,6c-0.1,9.8-5.8,19.6-9.9,24.9c-3,0.6-7.9,2.3-11.8,4.9c3.4-4,4.2-12.2,2.8-15.4
				C123.9,16,132.9,7.5,139.1,6L139.1,6z"/>
			<path class="st0" d="M99.4,60.8c7.3-7.1,16.7-11.2,26.6-12.1c7-0.6,12.5-3.5,16.1-6.6c8.4-7.3,16.7-4,26-0.2
				c-3.7,6.7-9.4,16.5-20.4,14.5c-1.8,2.6-8.2,9-13,5.9c-2.5,2.5-6.7,5.5-13,2.3c-6.3-3.2-13-6-22.8-0.8c-0.1-0.2-1.5-2.2-2.2-2.9
				c15.9-24.6,27.2-26.5,36-28.6c2.8-4.9,7.2-8.7,11.3-11c4.1-2.3,13-4.6,23.4-2.7c-0.2,0.2-0.7,1.1-1.4,3.3
				c-0.8,2.6-4.2,9.9-9.8,14.7c-5.6-1.3-10.8,0.5-15.1,4.1c-3.4,2.9-6.7,5.1-15.4,6.4C118.4,48.1,108.3,49,99.4,60.8L99.4,60.8z"/>
			<path class="st0" d="M118,20.5c1.7,3.8,1.2,11-3.3,16.5c-4.5,5.5-11,8.6-13.9,11.5c-4.6,4.6-4.7,9.9-5.1,11.1
				c-0.1-0.1-0.9-0.6-1.3-0.9c0-2.4-1-11.9,5.5-20c6.5-8,16.1-20.7,17.3-38.7C118.8,2.8,123.4,13.6,118,20.5z"/>
		</g>
		<path class="st1" d="M97.1,60.5c8.2,7.4,9.2,17.2,4.6,23c-6,7.3-14.3,6.9-21.7,5.9c-6.3-0.9-8.5,0.6-10.2,2.2
			c1.4-1.9,2.5-4.3,0.9-10.4c-1.9-7.2-3.3-15.5,3.2-22.3C79,53.6,88.7,53.3,97.1,60.5"/>
		<path class="st2" d="M82.3,62.9c-1.6,0.8-3.4,0.6-3.9-0.5c-0.5-1,0.3-2.5,1.9-3.3c1.6-0.8,3.4-0.6,3.9,0.5
			C84.8,60.7,83.9,62.2,82.3,62.9z"/>
		<path d="M58.8,82.1c3.5,8.6-1.3,16.6-7.3,22.7c-3.5,3.2-7,6.1-10.7,8.9c3.9,8.4,12.3,14.2,17.5,22.1c-2.3,2-5.2,4-7.9,5.8
			c-8.2-9.9-19.6-18.6-21.6-31.4c6.8-6.3,16.2-10.8,20.6-19.5c1-2.7,0-5.6-1.7-7.6c-7.9-8.3-20.2-8.1-30.5-4.9c-3,1.4-6.5,3.5-8,6.8
			H8.4L0,81.3c0.7-3,2.8-5.7,5.4-7.8c11.2-9.6,30.5-9.8,43-3C53.1,72.9,56.8,77.5,58.8,82.1z"/>
		<path d="M132.9,76.2l0.1,3.9l-0.7,56.4c-4.5,0.3-7.3-0.8-10.1-1c-0.4-7,0-16.6-3-22.6c-0.5-1.5-2-0.3-2.8-0.1
			c-6.1,1.2-9.4,6.2-9.2,11.3c2.6,4.7,7.7,4.6,12.5,4.5c0.6,3.3,0.8,6.9,1,10.3c-9.1,0.7-17.2-1.2-22.3-9.4
			c-2.5-4.2-1.4-12.4,1-16.4c5.4-7.5,13-13.1,22.7-10.5c0.6-10.2-0.4-16.8-0.1-26.7C122.1,76,129.3,76.2,132.9,76.2z"/>
		<path d="M148,77.8l0.6,2.6c-1.5,1.4-2.4,3.1-2.5,5.2c-0.4,4.6,4.1,6.9,7.1,9.5c2.6-2,4.3-3.4,5.4-7l2.1-8.4
			C157.2,77.7,151.7,74.5,148,77.8z M155.9,87.3c-0.8,1.4-2.5,1.3-4.9,0l3.6-4.7C156.2,84.9,156.3,86.4,155.9,87.3z"/>
		<path d="M205.6,87.2c0.4,9.6-1.1,17.8-1.5,27.5l0.2,0.2c2.7-2.3,5.9-3.9,9.6-2.8c8.9,3,9.9,13.1,12.2,20.7
			c-2.4,1.9-5.7,3.6-8.5,5.3c-2.8-4.9-2.8-11.2-6.2-15.9c-3.9,3.6-5.7,8.2-7.5,12.7l-0.4,0.2l-9.4-1c-1.5-16.3,1.2-31.4,1.5-47
			C199.2,87,202.4,87,205.6,87.2z"/>
		<path d="M27.9,90.4c-2.1,7.2-2.6,15.3-2.5,23.3l1.4,30.3l-0.5,0.4c-3.2-0.1-6.4,0.1-9.5-0.1c-0.7-2.8-0.1-5.7-0.5-8.9
			c-1-15.5-2.8-33.4,2-48L27.9,90.4z"/>
		<path d="M181.7,100.6l-7.4,6.7c-0.8-1.2-3-0.5-3.7,0.6c-1,1.5-1.6,4.1,1.2,5.8c4.6,2.7,10.8,3,13.4,8.6c2.2,4.4,0.9,12.1-2,14
			c-3.4,3.1-16.9,1.9-23.1-4.6l4.9-6.7c0.9,0.4,3.6,2,4.5,2.4c1.9,0.9,5.7,2,6.5,0.2c0.4-1.8-1.9-1.9-3-2.5
			c-4.8-1.5-9.8-4.4-11.5-9.6c-2.3-6.9,0.7-14.1,7.1-18c3-1.5,7.3-1.5,10.1,0.5C179.7,99,181,99.6,181.7,100.6z"/>
		<path d="M84.7,101c-1.1,3-3.3,5.9-4.8,9c-5.3,2.3-9.1,7.9-10.4,13.2c0.1,0.7-0.3,1.7,0.4,2.2c1.2-0.1,2.1-0.1,3.2-0.8
			c4.2-3,6.9-9.1,9.2-15.2c3.1,1,6.2,2,9.4,3c-1.8,6.8-0.4,9.1,2.2,12.3c-1.1,3-1.7,6.7-2.8,10c-3.6-0.7-6.2-4.7-7.5-7.8
			c-4.1,4.9-8.9,10-15.8,8.9c-4-0.9-7.3-5.1-8.1-8.9c-1.2-9.6,4.4-17.6,11.5-23.5C74.7,100.4,80.2,98.6,84.7,101z"/>
		<path d="M152.9,105.4c0.4,8.4-0.8,17.6,0,25.9l0.6,2.7l-8.1,5.5c-1.2-1.2-1.8-3.1-2.2-4.8c-1.7-9.2-0.4-20.2-0.2-29.1l0.2-0.2
			H152.9z"/>
		<path d="M82.8,202.4c2.7,1.9,2,2.5,6.1,3.8c2.5,1.2,4.7,1.5,7.6,1.6c3.6-2.4,4.1-8.6,3.1-13.2c-1.4-4.1-5.8-6.3-9.5-7.6
			c-4-1.5-8.1-2.5-12.1-4.1c2.6-9.4,4.8-20.6-2.8-28.4c-1.3-1.3-3.5-2.3-5.1-2.5c-3,0-5.3,1.7-7.6,3.2c-2.2-2.3-4-5.2-6-7.9
			c5.1-4.8,13.1-6.3,20.1-3.9c4.2,1.4,7.9,5,9.7,8c4.4,7.5,3.7,15.3,3.3,24.4c8.8,2.7,20.1,8.4,20.6,19.2
			c0.4,8.8-1.7,18.9-10.7,22.6c-7.8,1.5-15.1-1.3-20.9-6.1L82.8,202.4z"/>
		<path d="M72,163.9c-5.2,18.1,5.7,36.3-1.2,54.1h-1l-8.5-3.7c2.6-7.2,1.4-14.5,0.6-22.1c-1.4-10.5-3.4-21.2,0.7-31.8L72,163.9z"/>
		<path d="M212.3,178.2l0.5,1.3c-2.6,1.9-4,3.3-6.9,5.4c-0.8-0.1-0.6-2.5-3.6-2.9c-4,1.1-6.1,8.6-5.5,13.8c0.3,1.6,0.7,4.9,2.5,5.1
			c4.4-0.2,6.5-10.6,7.5-14.4c3.3,0.3,4.6,0.6,8,0.9c-0.5,4.2-4.6,15.6,2.9,17c0.8,0.1,1.5,0.1,2.3,0.4l-1.2,9.9
			c-4.6-0.6-8.8-2.7-11.6-6.9c-2.7,2.3-5.8,4-9.4,3.4c-5.9-0.9-9.2-7.5-10.8-12.5c-1.7-9,1.5-18.9,8.8-24.7c3.3-2.4,7.4-2.8,11.1-1
			C209.1,174,210.6,176.1,212.3,178.2z"/>
		<path d="M157.8,173.9c0.3,8.8,5.4,15.5,8,23.3c4.2-6.5,7.7-13.5,7.6-21.8c3.1-0.8,6.9-0.5,10.1-0.7c0.4,14.6-7,26.2-15.5,37.2
			c-4.7,5.5-9.4,10.2-15.2,14.2l-5.6-8.1c5-4.1,10.1-9.1,14.1-14.1c0.7-1.3,2-2.3,2.6-3.7c-2.4,0.2-4.9,1.1-7.3,1.6
			c-3.3-9.3-9.7-17.8-8.8-28.7L157.8,173.9z"/>
		<path d="M146,189.3c-1.1-6.2-5.6-12.5-12.1-13.8l0.6-2.6c-1.4-0.7-3.3-0.5-4.9-0.4c-9.9,3.5-14.9,14.1-16,23.9
			c-0.3,5.5,1.6,10.7,6.7,13.3c6.5,3.1,15.4,2,20.7-2.8C145.8,202.4,147.4,195.3,146,189.3z M135,197.9c-1.4,2.6-4.4,3.2-7.3,3.2
			c-1.2,0.1-2.3-0.1-3.2-0.9c-1.7-3.2-0.1-6.9,1-9.9c1.2-2.5,2.5-4.9,4.7-6.8c-0.9,2.9,2.8,1.4,3.6,3.2
			C136.3,189.8,136.9,194.4,135,197.9z"/>
	</g>
	<g class="st3">
		<rect x="101.7" y="145.9" class="st4" width="102" height="17.7"/>
		<path class="st5" d="M114.2,151.6l-4.3,0.1v-1.8l4.3-0.1V151.6z M111.4,155c0.9-0.4,1.8-0.6,2.6-0.6c1.7,0,2.8,1,2.8,2.5
			c0,1-0.5,2.1-1.3,3.5l-1.8-0.8l0.4-1l0.4,0.1c0.2-0.4,0.2-0.8,0.2-1.2c0-0.7-0.4-1.1-1.3-1.1c-0.8,0-2.2,0.5-4,1.5l-0.2-5.4
			l2.2-0.1V155z"/>
		<path class="st5" d="M125.8,151.6l-1.8,0.2c-1.1,1.9-1.6,3.4-1.5,4.5c0,0.6,0.3,1.3,0.7,1.9l0.3-0.2l0.6,0.8l-1.4,1.3
			c-1.4-1.3-2.2-2.5-2.3-3.8c-0.1-1,0.2-2.4,0.9-4l-3.9,0.5l-0.2-1.9l8.3-0.8L125.8,151.6z M125.5,156.3l-1.4,0.2l-0.6-2.1l1.6-0.2
			L125.5,156.3z M127.4,154.6l-1.4,0.1l-0.4-2l1.6-0.1L127.4,154.6z"/>
		<path class="st5" d="M131,154c0.1,1.5,0.4,2.8,0.9,4.2l0.9-0.3l0.4,1.1l-2.5,1.2c-0.8-2-1.3-4-1.5-6.2l-0.1-1.5l1.7-0.1L131,154z
			 M135.2,157.1l0.4-0.1l-0.2-2.6l1.6-0.1c0.1,1.2,0.1,2.5,0.1,3.8l-1.8,0.1L135.2,157.1z"/>
		<path class="st5" d="M142,158.1l0.3,0.2c1-1.4,1.5-2.4,1.5-3.2c0-0.7-0.4-1-1.1-1c-0.6,0-1.6,0.4-2.8,1l-0.8-1.6
			c1.6-0.9,2.9-1.3,4-1.3c1.6,0,2.7,1,2.7,2.4c0,1.4-1,3.2-2.9,5.6l-1.5-1L142,158.1z"/>
		<path class="st5" d="M152.2,152.1l-1.3,0.4c0,0.9,0,1.7,0,2.2c0,0.4,0,0.7,0,1c0,1.5,0.6,2.6,2,2.6l0.5,0l0-0.3l0.9-0.2l0.5,1.7
			c-0.9,0.3-1.7,0.6-2.4,0.5c-1.3,0-1.9-0.4-2.5-1c-0.8-0.8-1-2.1-1-3.7v-3.5h1.6l-0.7-2l1.9-0.5L152.2,152.1z"/>
		<path class="st5" d="M158.1,157.7l0.3,0l0.1,0.9l-1.7,0.2l-0.6-5.4l1.8-0.1L158.1,157.7z M161.6,153.5c1.8,0,2.8,0.8,2.8,2.3
			c0,1.1-0.5,2.5-1.4,4.1l-1.8-0.8l0.5-1.1l0.6,0.2c0.3-0.7,0.5-1.3,0.5-1.7c0-0.8-0.5-1.2-1.5-1.2l-1,4.9l-1.3-0.2l0.7-4.5
			l-1.8,0.2l-0.1-1.6l2.2-0.4l0.3-2.2l1.7,0.3L161.6,153.5z"/>
		<path class="st5" d="M172.8,158.1l-2.6,1.5c-0.5-2-0.7-4-0.7-5.9c0-1.2,0.1-2.5,0.3-4l1.9,0.2c-0.2,1.4-0.3,2.6-0.3,3.8
			c0,1.2,0.1,2.3,0.3,3.3l0.6-0.3L172.8,158.1z M178.1,153.3l-0.8,0.1l-0.1,0.9l1.4-0.1l-0.1,1.8l-1,0.1l0-0.3l-0.5,0l-0.3,1.8
			c0.5,0,1,0.1,1.5,0.3l-0.4,1.4c-0.4-0.2-0.9-0.3-1.3-0.3c-0.5,0.6-1.1,0.9-1.7,0.9c-0.8,0-1.3-0.4-1.3-1.1c0-0.7,0.5-1.3,1.5-1.4
			l0.2-1.5l-1.8,0.1v-1.6l2-0.1l0.1-0.9l-2.1,0.1l-0.1-1.9l4.8-0.2l0.1-1.2h1.6l-0.4,2.1h-1.1V153.3z M177.4,150.8h-1.5v-1.9h1.7
			L177.4,150.8z"/>
		<path class="st5" d="M187.5,156.3l-6.5,0.1v-1.8l6.6,0.1L187.5,156.3z"/>
		<path class="st5" d="M195.6,150l1.8,0.4l-0.5,1.8c1.3,0.4,2,1.2,2,2.4c0,0.6-0.2,1.5-0.6,2.5l-1.7-0.6l0.3-0.9l0.4,0l0.1-0.5
			c0-0.6-0.3-1-0.9-1.2l-0.5,1.8l-1.4-0.3l0.3-1.7c-0.5,0-1.1,0.1-1.9,0.2l0.6,5.8l-1.7,0.2l-0.8-5.6l-1.7,0.4l-0.5-1.9l1.9-0.5
			l-0.4-2.8l2.1-0.2l0.3,2.6c0.7-0.1,1.3-0.1,1.8-0.1h0.6L195.6,150z"/>
		<path class="st6" d="M215.5,160.7c3.1,0,5.6-2.5,5.6-5.6c0-3.1-2.5-5.6-5.6-5.6c-3.1,0-5.6,2.5-5.6,5.6
			C209.9,158.2,212.4,160.7,215.5,160.7z"/>
		<path class="st7" d="M216.2,152.1c1.2,0,1.9,0.7,1.9,1.6c0,0.7-0.5,1.3-1.3,1.5c0.6,0.1,0.9,0.4,1.1,1c0.1,0.2,0.2,0.9,0.6,2.1h-1
			c-0.2-1-0.3-1.6-0.4-1.9c-0.2-0.6-0.7-0.9-1.5-0.9H214v2.7h-0.9v-6.2H216.2z M215.6,154.8c1.1,0,1.6-0.4,1.6-1
			c0-0.6-0.5-0.9-1.4-0.9H214v2H215.6z"/>
	</g>
</g>
</svg>
